<?xml version="1.0" encoding="UTF-8"?>
<svg version="1.1" xmlns="http://www.w3.org/2000/svg" width="960" height="1056">
<path d="M0 0 C1.15773926 0.25740967 1.15773926 0.25740967 2.33886719 0.52001953 C31.23085217 7.08851429 56.04930713 20.61862395 81.125 35.9375 C82.33491493 36.67452557 83.54496053 37.41133666 84.75512695 38.14794922 C87.25768908 39.67149935 89.75970151 41.19594553 92.26123047 42.72119141 C98.23299146 46.36181836 104.20980331 49.99412974 110.1875 53.625 C110.76856506 53.97803192 111.34963013 54.33106384 111.94830322 54.6947937 C120.11632398 59.65644902 128.30097779 64.58970393 136.5 69.5 C145.28824491 74.76317447 154.05811916 80.05575599 162.8125 85.375 C163.39432037 85.72850525 163.97614075 86.0820105 164.57559204 86.44622803 C169.3114847 89.32406195 174.04632542 92.20362496 178.78112793 95.08325195 C182.9160974 97.59797113 187.0514765 100.11201475 191.1875 102.625 C191.76956207 102.97866638 192.35162415 103.33233276 192.95132446 103.69671631 C201.11834459 108.65771873 209.3020025 113.59031762 217.5 118.5 C226.28824491 123.76317447 235.05811916 129.05575599 243.8125 134.375 C244.68523056 134.90525787 244.68523056 134.90525787 245.57559204 135.44622803 C250.3114847 138.32406195 255.04632542 141.20362496 259.78112793 144.08325195 C263.9160974 146.59797113 268.0514765 149.11201475 272.1875 151.625 C272.76956207 151.97866638 273.35162415 152.33233276 273.95132446 152.69671631 C282.11834511 157.65771905 290.30205741 162.59022528 298.5 167.5 C310.37429089 174.61301021 322.22071465 181.77060675 334.03582764 188.98144531 C337.63706292 191.17707689 341.25208351 193.34818752 344.875 195.5078125 C356.02537215 202.20101717 366.21840344 209.42646787 376 218 C376.57685547 218.49854492 377.15371094 218.99708984 377.74804688 219.51074219 C386.33880942 226.97476669 393.94665503 235.07183344 401 244 C401.48291504 244.6084375 401.96583008 245.216875 402.46337891 245.84375 C422.46120935 271.48370623 435.31345979 302.88162289 440 335 C440.16893359 336.06715775 440.33786718 337.13431551 440.51191998 338.23381138 C441.3024923 344.65456417 441.14847398 351.11608372 441.14717102 357.57469177 C441.15047444 359.0610824 441.15420101 360.54747213 441.1583125 362.03386074 C441.16828706 366.10629327 441.17204197 370.17871106 441.17470181 374.25115407 C441.17861864 378.64894869 441.18819625 383.04673181 441.19691467 387.44451904 C441.21664449 398.06208864 441.22674275 408.67965915 441.23564246 419.29724249 C441.24003274 424.30737007 441.24539778 429.31749661 441.25063133 434.32762337 C441.26764326 451.00165175 441.28213353 467.6756795 441.28938007 484.34971523 C441.29128973 488.67332904 441.29321009 492.99694285 441.29516602 497.32055664 C441.29564976 498.39506803 441.2961335 499.46957942 441.2966319 500.57665176 C441.30491757 517.95101004 441.33022986 535.32529914 441.36274669 552.69962727 C441.39591887 570.57114874 441.41383814 588.44263519 441.41702431 606.31418759 C441.41918048 616.33455226 441.42779681 626.35481619 441.45348549 636.37515068 C441.47533208 644.91620239 441.48317517 653.45712888 441.47351871 661.99820536 C441.46901347 666.34565307 441.47063579 670.69284322 441.49028015 675.04025459 C441.63643572 709.35395516 437.33953903 740.88062036 422 772 C421.64679687 772.72413086 421.29359375 773.44826172 420.9296875 774.19433594 C410.06692646 796.24222412 394.19964596 817.50149061 375 833 C374.51192871 833.40041504 374.02385742 833.80083008 373.52099609 834.21337891 C365.06980588 841.12936635 356.31880612 847.30538587 347 853 C346.00097656 853.61149902 345.00195312 854.22299805 343.97265625 854.85302734 C331.56597277 862.43508868 319.11586205 869.94471572 306.64013672 877.41259766 C299.57716059 881.64411653 292.53676233 885.91258757 285.5 890.1875 C284.910979 890.54532562 284.32195801 890.90315125 283.71508789 891.27182007 C279.47627017 893.84713148 275.23807026 896.42345875 271 899 C266.16708024 901.93818091 261.33390522 904.8759406 256.5 907.8125 C255.61550171 908.34984268 255.61550171 908.34984268 254.71313477 908.89804077 C246.70325362 913.76309264 238.67792168 918.60145886 230.63671875 923.41455078 C223.5749899 927.64559874 216.53564144 931.91326852 209.5 936.1875 C208.910979 936.54532562 208.32195801 936.90315125 207.71508789 937.27182007 C203.47627017 939.84713148 199.23807026 942.42345875 195 945 C190.16708024 947.93818091 185.33390522 950.8759406 180.5 953.8125 C179.61550171 954.34984268 179.61550171 954.34984268 178.71313477 954.89804077 C170.70325362 959.76309264 162.67792168 964.60145886 154.63671875 969.41455078 C143.93753021 975.82498947 133.28676903 982.31562552 122.62890625 988.79443359 C119.07620655 990.95392939 115.52262394 993.11196856 111.96875 995.26953125 C111.39286133 995.61919449 110.81697266 995.96885773 110.22363281 996.32911682 C107.32271997 998.09035994 104.42143508 999.85098582 101.51953125 1001.6105957 C95.57787092 1005.2143396 89.64301808 1008.82866494 83.71875 1012.4609375 C60.49129694 1026.69139959 37.96910443 1040.22922016 11.4375 1047.3125 C10.57729248 1047.54300049 9.71708496 1047.77350098 8.83081055 1048.01098633 C-6.9140207 1051.96498204 -22.48719073 1053.55905117 -38.6875 1053.4375 C-39.55507935 1053.43445862 -40.42265869 1053.43141724 -41.31652832 1053.42828369 C-85.36354097 1053.20096643 -122.03206147 1037.29055738 -158.80859375 1014.23828125 C-163.69075564 1011.18092146 -168.6161561 1008.20211005 -173.5625 1005.25 C-181.56169504 1000.47030512 -189.53658086 995.65150501 -197.5 990.8125 C-198.08838654 990.45503693 -198.67677307 990.09757385 -199.2829895 989.72927856 C-204.13355749 986.78231661 -208.98330445 983.83400464 -213.83300781 980.88562012 C-218.05495902 978.31895524 -222.27722201 975.75280442 -226.5 973.1875 C-227.08966553 972.82927155 -227.67933105 972.47104309 -228.28686523 972.10195923 C-235.51200006 967.71354759 -242.74659626 963.34155178 -250 959 C-257.85139943 954.30051567 -265.67966279 949.56344301 -273.5 944.8125 C-274.38353149 944.27576157 -274.38353149 944.27576157 -275.28491211 943.72817993 C-280.13484021 940.78158585 -284.98393496 937.83362132 -289.83300781 934.88562012 C-294.05495902 932.31895524 -298.27722201 929.75280442 -302.5 927.1875 C-303.08966553 926.82927155 -303.67933105 926.47104309 -304.28686523 926.10195923 C-311.51200006 921.71354759 -318.74659626 917.34155178 -326 913 C-333.85139943 908.30051567 -341.67966279 903.56344301 -349.5 898.8125 C-350.38353149 898.27576157 -350.38353149 898.27576157 -351.28491211 897.72817993 C-356.13484021 894.78158585 -360.98393496 891.83362132 -365.83300781 888.88562012 C-370.05495904 886.31895523 -374.27729487 883.75292437 -378.5 881.1875 C-379.08733917 880.83060089 -379.67467834 880.47370178 -380.27981567 880.10598755 C-387.65030927 875.62803714 -395.03509823 871.17501101 -402.4375 866.75 C-441.97528752 843.05886714 -441.97528752 843.05886714 -455.546875 830.30078125 C-457.68874432 828.29192611 -459.87802312 826.38869907 -462.125 824.5 C-494.64350395 795.99693885 -515.7756756 748.62667555 -519 706 C-519.14720068 701.09971743 -519.14816163 696.20038078 -519.14717102 691.29832458 C-519.15047538 689.81035821 -519.15420214 688.32239273 -519.1583125 686.83442837 C-519.16827606 682.76232457 -519.17204015 678.69023551 -519.17470181 674.61812127 C-519.17862184 670.21900001 -519.18819907 665.81989024 -519.19691467 661.42077637 C-519.21663353 650.80362977 -519.22674047 640.18648228 -519.23564246 629.56932196 C-519.24003376 624.55906764 -519.24539846 619.54881436 -519.25063133 614.53856087 C-519.26764069 597.86448988 -519.28213162 581.19041953 -519.28938007 564.51634121 C-519.29128971 560.19391822 -519.29321008 555.87149523 -519.29516602 551.54907227 C-519.29564976 550.47486407 -519.2961335 549.40065587 -519.2966319 548.29389591 C-519.30492013 530.91892566 -519.33023793 513.54402453 -519.36274669 496.16908442 C-519.39591169 478.29640611 -519.41383742 460.4237628 -519.41702431 442.55105358 C-519.41918093 432.53017676 -519.42780419 422.50940066 -519.45348549 412.488554 C-519.47532206 403.94859588 -519.48317991 395.40876295 -519.47351871 386.86878007 C-519.4690109 382.52144932 -519.47065146 378.17437615 -519.49028015 373.82708168 C-519.58856346 350.78921009 -518.63120412 328.3398018 -511.5625 306.1875 C-511.2310498 305.13328857 -510.89959961 304.07907715 -510.55810547 302.99291992 C-504.46968655 284.54139398 -495.7142729 266.54626146 -484 251 C-483.58073242 250.43104004 -483.16146484 249.86208008 -482.72949219 249.27587891 C-472.69166657 235.71237073 -461.42247865 223.26993683 -448 213 C-447.14664063 212.28457031 -446.29328125 211.56914062 -445.4140625 210.83203125 C-434.11806483 201.59407151 -421.281673 194.49860186 -408.77124023 187.05523682 C-405.02199615 184.82158137 -401.2822823 182.57201294 -397.54077148 180.32543945 C-395.50440062 179.10296294 -393.46744839 177.88145437 -391.42993164 176.66088867 C-383.66615519 172.00898605 -375.92235007 167.32476755 -368.1875 162.625 C-367.60567963 162.27149475 -367.02385925 161.9179895 -366.42440796 161.55377197 C-362.28236132 159.0367972 -358.14109321 156.51854301 -354 154 C-349.27136534 151.12412419 -344.54239057 148.24880989 -339.8125 145.375 C-339.23043793 145.02133362 -338.64837585 144.66766724 -338.04867554 144.30328369 C-328.8609154 138.72223949 -319.64886177 133.18247957 -310.42626953 127.65917969 C-302.6641797 123.0070703 -294.9212062 118.32407252 -287.1875 113.625 C-286.60567963 113.27149475 -286.02385925 112.9179895 -285.42440796 112.55377197 C-281.28236132 110.0367972 -277.14109321 107.51854301 -273 105 C-268.27136534 102.12412419 -263.54239057 99.24880989 -258.8125 96.375 C-258.23043793 96.02133362 -257.64837585 95.66766724 -257.04867554 95.30328369 C-247.8609154 89.72223949 -238.64886177 84.18247957 -229.42626953 78.65917969 C-221.6641777 74.0070691 -213.9213424 69.3238506 -206.1875 64.625 C-205.60335327 64.27016541 -205.01920654 63.91533081 -204.4173584 63.54974365 C-198.5555803 59.98874674 -192.69572229 56.42461848 -186.83924866 52.85490417 C-179.23571601 48.22077118 -171.62331813 43.60151735 -164 39 C-163.00371582 38.39844086 -163.00371582 38.39844086 -161.98730469 37.784729 C-157.76881199 35.23920248 -153.54530249 32.70225768 -149.31628418 30.17425537 C-147.96980227 29.36833102 -146.62444697 28.56052046 -145.28039551 27.75054932 C-132.94991114 20.32474264 -120.29923915 13.12753698 -106.6875 8.3125 C-105.90173584 8.03051758 -105.11597168 7.74853516 -104.30639648 7.45800781 C-95.66756344 4.43033525 -86.93360124 1.98628086 -78 0 C-77.28489258 -0.16516113 -76.56978516 -0.33032227 -75.83300781 -0.50048828 C-52.21309171 -5.71758716 -23.54168015 -5.4371839 0 0 Z M-82 338 C-82.87785156 338.20367187 -83.75570312 338.40734375 -84.66015625 338.6171875 C-112.04754809 345.15144004 -135.848477 358.9516213 -159.50805664 373.73071289 C-167.13920565 378.49434068 -174.84246121 383.13262646 -182.5625 387.75 C-196.19017162 395.90307462 -209.77358489 404.12689453 -223.33813477 412.38452148 C-226 414 -226 414 -228.62989807 415.04774475 C-231.42562626 416.91029969 -231.42562626 416.91029969 -231.60800171 420.87744141 C-231.62558373 422.53540867 -231.61522881 424.1938057 -231.58349609 425.8515625 C-231.58583252 426.75782379 -231.58816895 427.66408508 -231.59057617 428.59780884 C-231.59219619 431.60745082 -231.55806141 434.61557369 -231.5234375 437.625 C-231.51664281 439.72753345 -231.51192379 441.83007454 -231.50918579 443.93261719 C-231.49574107 449.48885221 -231.45144817 455.04445297 -231.40161133 460.60046387 C-231.36653204 465.08176206 -231.35318197 469.56299232 -231.34119225 474.04440308 C-231.3262287 479.44630747 -231.30114357 484.84814755 -231.2734375 490.25 C-231.26852673 491.25782532 -231.26361595 492.26565063 -231.25855637 493.30401611 C-231.20124453 518.72489514 -231.20124453 518.72489514 -228.3125 543.9375 C-228.14024902 544.93837646 -227.96799805 545.93925293 -227.79052734 546.97045898 C-225.98639665 556.9057611 -223.29791364 566.46417219 -220 576 C-219.57203125 577.24265625 -219.1440625 578.4853125 -218.703125 579.765625 C-212.26177333 596.96782299 -203.37424599 613.56998643 -192 628 C-191.27425781 628.93457031 -190.54851562 629.86914062 -189.80078125 630.83203125 C-181.76986287 640.91032918 -173.09840585 650.93947064 -163 659 C-162.04738281 659.76699219 -161.09476562 660.53398438 -160.11328125 661.32421875 C-140.21663521 677.11277455 -117.41568537 689.38175425 -95.65771484 702.40161133 C-89.64131261 706.00523007 -83.64316605 709.63846117 -77.65087891 713.28198242 C-75.23335749 714.75174715 -72.8137065 716.21790123 -70.39208984 717.6809082 C-64.88626681 721.01012102 -59.40160624 724.36391568 -53.9765625 727.82421875 C-53.06519531 728.3965625 -52.15382813 728.96890625 -51.21484375 729.55859375 C-49.53757074 730.61353017 -47.87008188 731.68425325 -46.21484375 732.7734375 C-41.89156319 735.52956387 -41.89156319 735.52956387 -36.90625 735.57421875 C-33.47299055 733.71453655 -30.14544564 731.75410151 -26.875 729.625 C-25.44115087 728.71059621 -24.00620554 727.79790963 -22.5703125 726.88671875 C-21.82040039 726.41024902 -21.07048828 725.9337793 -20.29785156 725.44287109 C-16.48418702 723.04818798 -12.61759208 720.7437076 -8.75 718.4375 C0.54881638 712.88128912 9.81454467 707.27152616 19.06884766 701.64160156 C20.27244347 700.9094765 21.47605685 700.1773803 22.6796875 699.4453125 C23.58051559 698.89738037 23.58051559 698.89738037 24.49954224 698.33837891 C28.78710502 695.73234946 33.08333683 693.14100421 37.3828125 690.5546875 C64.34830808 674.39983688 64.34830808 674.39983688 89 655 C90.48306641 653.69869141 90.48306641 653.69869141 91.99609375 652.37109375 C126.75327273 621.48106358 149.31844753 574.31837687 152.25193787 528.02409363 C152.33095098 526.519028 152.4075596 525.01383484 152.48217773 523.50854492 C152.523981 522.68281353 152.56578426 521.85708214 152.60885429 521.00632858 C152.74216067 518.3376873 152.8715052 515.66887701 153 513 C153.04280783 512.126691 153.08561565 511.253382 153.12972069 510.35360909 C153.70668798 498.46076959 154.1269219 486.57049929 154.37743568 474.66614914 C154.49714403 469.14010668 154.66493755 463.62413866 154.94091797 458.10351562 C157.40299026 434.86294175 157.40299026 434.86294175 150.68484497 413.61322021 C144.91903563 408.32562924 138.37062227 405.52249921 131.01928711 403.06152344 C127.08953739 401.67989881 123.85692209 399.72106674 120.41796875 397.4140625 C119.37930664 396.78282471 118.34064453 396.15158691 117.27050781 395.5012207 C116.25311523 394.88206787 115.23572266 394.26291504 114.1875 393.625 C113.02837873 392.9207209 111.86919696 392.21654138 110.70996094 391.51245117 C105.34829141 388.25531991 99.98908672 384.99419497 94.63381958 381.72654724 C88.20939674 377.80668228 81.77621805 373.90177768 75.33251953 370.01367188 C73.15650168 368.69881508 70.98288282 367.37997758 68.81201172 366.05664062 C46.89317108 352.71804298 25.05589076 342.84523509 0 337 C-0.80308594 336.80792969 -1.60617187 336.61585938 -2.43359375 336.41796875 C-27.47334811 330.73303319 -57.20714563 332.04971495 -82 338 Z " fill="#4597D7" transform="translate(519,3)"/>
<path d="M0 0 C7.99140115 4.33026353 15.88690333 8.78632137 23.72558594 13.38623047 C25.62769932 14.50158281 27.53250953 15.61222675 29.4375 16.72265625 C35.38955197 20.20388997 41.25632796 23.75601969 46.95996094 27.63623047 C50.49443868 29.99903476 54.15566478 32.1459543 57.8125 34.3125 C66.33840944 39.39523793 74.83166935 44.53006893 83.3125 49.6875 C93.8909516 56.11907858 93.8909516 56.11907858 104.5 62.5 C111.41377284 66.63712529 118.30129536 70.81721153 125.1875 75 C125.78372162 75.362146 126.37994324 75.72429199 126.99423218 76.09741211 C131.95820008 79.11275937 136.9215491 82.12912485 141.8848877 85.14550781 C146.19381483 87.76412795 150.50303786 90.38226043 154.8125 93 C155.40744263 93.36146118 156.00238525 93.72292236 156.61535645 94.09533691 C162.46950038 97.65166011 168.32478591 101.20560616 174.20629883 104.71655273 C177.14256013 106.46936532 180.07168695 108.23395929 183 110 C183.8048584 110.48388184 184.6097168 110.96776367 185.43896484 111.46630859 C199.54614737 119.97298357 212.582976 128.71366719 224.7265625 139.9140625 C226.8389424 141.8522255 228.99998072 143.71023271 231.1875 145.5625 C235.19614863 149.07605657 238.61994098 152.88455888 242 157 C243.20076172 158.42699219 243.20076172 158.42699219 244.42578125 159.8828125 C274.17535056 195.93241973 292.12523525 245.02584277 287.71582031 292.02929688 C285.10065823 314.14249049 278.83377742 335.05017932 269 355 C268.64679687 355.72413086 268.29359375 356.44826172 267.9296875 357.19433594 C257.06692646 379.24222412 241.19964596 400.50149061 222 416 C221.51192871 416.40041504 221.02385742 416.80083008 220.52099609 417.21337891 C212.06980588 424.12936635 203.31880612 430.30538587 194 436 C192.50146484 436.91724854 192.50146484 436.91724854 190.97265625 437.85302734 C178.56597277 445.43508868 166.11586205 452.94471572 153.64013672 460.41259766 C146.57716059 464.64411653 139.53676233 468.91258757 132.5 473.1875 C131.910979 473.54532562 131.32195801 473.90315125 130.71508789 474.27182007 C126.47627017 476.84713148 122.23807026 479.42345875 118 482 C113.16708024 484.93818091 108.33390522 487.8759406 103.5 490.8125 C102.61550171 491.34984268 102.61550171 491.34984268 101.71313477 491.89804077 C93.70325362 496.76309264 85.67792168 501.60145886 77.63671875 506.41455078 C70.5749899 510.64559874 63.53564144 514.91326852 56.5 519.1875 C55.910979 519.54532562 55.32195801 519.90315125 54.71508789 520.27182007 C50.47627017 522.84713148 46.23807026 525.42345875 42 528 C37.16708024 530.93818091 32.33390522 533.8759406 27.5 536.8125 C26.61550171 537.34984268 26.61550171 537.34984268 25.71313477 537.89804077 C17.70325362 542.76309264 9.67792168 547.60145886 1.63671875 552.41455078 C-9.06246979 558.82498947 -19.71323097 565.31562552 -30.37109375 571.79443359 C-33.92379345 573.95392939 -37.47737606 576.11196856 -41.03125 578.26953125 C-41.89508301 578.79402611 -41.89508301 578.79402611 -42.77636719 579.32911682 C-45.67728003 581.09035994 -48.57856492 582.85098582 -51.48046875 584.6105957 C-57.42212908 588.2143396 -63.35698192 591.82866494 -69.28125 595.4609375 C-92.50870306 609.69139959 -115.03089557 623.22922016 -141.5625 630.3125 C-142.85281128 630.65825073 -142.85281128 630.65825073 -144.16918945 631.01098633 C-159.9140207 634.96498204 -175.48719073 636.55905117 -191.6875 636.4375 C-192.55507935 636.43445862 -193.42265869 636.43141724 -194.31652832 636.42828369 C-238.36354097 636.20096643 -275.03206147 620.29055738 -311.80859375 597.23828125 C-316.69075564 594.18092146 -321.6161561 591.20211005 -326.5625 588.25 C-334.56169504 583.47030512 -342.53658086 578.65150501 -350.5 573.8125 C-351.08838654 573.45503693 -351.67677307 573.09757385 -352.2829895 572.72927856 C-357.13355749 569.78231661 -361.98330445 566.83400464 -366.83300781 563.88562012 C-371.05495902 561.31895524 -375.27722201 558.75280442 -379.5 556.1875 C-380.08966553 555.82927155 -380.67933105 555.47104309 -381.28686523 555.10195923 C-388.51200006 550.71354759 -395.74659626 546.34155178 -403 542 C-410.85139943 537.30051567 -418.67966279 532.56344301 -426.5 527.8125 C-427.38353149 527.27576157 -427.38353149 527.27576157 -428.28491211 526.72817993 C-433.13484021 523.78158585 -437.98393496 520.83362132 -442.83300781 517.88562012 C-447.05495902 515.31895524 -451.27722201 512.75280442 -455.5 510.1875 C-456.08966553 509.82927155 -456.67933105 509.47104309 -457.28686523 509.10195923 C-464.51200006 504.71354759 -471.74659626 500.34155178 -479 496 C-488.03838875 490.5900388 -497.04699084 485.13138802 -506.04541016 479.65527344 C-511.63938738 476.25155999 -517.23630866 472.85333808 -522.85015869 469.48246765 C-525.41097599 467.94446188 -527.96958668 466.40280557 -530.52807617 464.8609314 C-531.74492266 464.12899381 -532.9628355 463.39882567 -534.18188477 462.67056274 C-546.6262111 455.23469314 -546.6262111 455.23469314 -551 451 C-551 450.34 -551 449.68 -551 449 C-550.48695313 449.15855469 -549.97390625 449.31710937 -549.4453125 449.48046875 C-543.54439362 451.27856019 -537.62007148 452.99719082 -531.6875 454.6875 C-530.91100098 454.91397217 -530.13450195 455.14044434 -529.33447266 455.3737793 C-525.46087003 456.46707414 -522.06943766 457.30053731 -518 457 C-518 457.66 -518 458.32 -518 459 C-517.2265625 459.06058594 -516.453125 459.12117188 -515.65625 459.18359375 C-514.09390625 459.30927734 -514.09390625 459.30927734 -512.5 459.4375 C-511.4790625 459.51871094 -510.458125 459.59992188 -509.40625 459.68359375 C-507.02994724 459.9043283 -504.65879331 460.18513725 -502.29467773 460.51147461 C-498.15478707 461.03257123 -494.04810504 461.14493709 -489.87890625 461.1328125 C-488.76261086 461.13424759 -488.76261086 461.13424759 -487.62376404 461.13571167 C-486.06159378 461.13638721 -484.4994206 461.13457698 -482.93725586 461.13037109 C-480.57203741 461.12502157 -478.20700947 461.13033358 -475.84179688 461.13671875 C-463.25112222 461.39421217 -463.25112222 461.39421217 -451 459 C-448.8125 459.4375 -448.8125 459.4375 -447 460 C-447 459.34 -447 458.68 -447 458 C-445.35 458.33 -443.7 458.66 -442 459 C-442 458.34 -442 457.68 -442 457 C-439.03 457 -436.06 457 -433 457 C-433 456.34 -433 455.68 -433 455 C-431.68 455.33 -430.36 455.66 -429 456 C-428.67 455.34 -428.34 454.68 -428 454 C-427.34 454.33 -426.68 454.66 -426 455 C-426 454.34 -426 453.68 -426 453 C-423.69 453 -421.38 453 -419 453 C-418.67 452.34 -418.34 451.68 -418 451 C-416.68 451 -415.36 451 -414 451 C-414 450.34 -414 449.68 -414 449 C-413.2575 448.87625 -412.515 448.7525 -411.75 448.625 C-409.1553173 448.03529939 -407.33087926 447.23827961 -405 446 C-402.03529069 444.6984203 -400.26618965 444 -397 444 C-396.67 443.34 -396.34 442.68 -396 442 C-394.02699884 440.94773272 -392.02323613 439.95211112 -390 439 C-389.29875 438.649375 -388.5975 438.29875 -387.875 437.9375 C-386.61641835 437.30820917 -385.34492335 436.70415893 -384.0625 436.125 C-381.81018423 434.97683072 -381.81018423 434.97683072 -379.375 432.875 C-377 431 -377 431 -375 431 C-374.34 430.34 -373.68 429.68 -373 429 C-372.01 428.67 -371.02 428.34 -370 428 C-369.34 427.34 -368.68 426.68 -368 426 C-367.01 425.67 -366.02 425.34 -365 425 C-364.34 424.34 -363.68 423.68 -363 423 C-362.01 422.67 -361.02 422.34 -360 422 C-359.34 421.01 -358.68 420.02 -358 419 C-357.01 419 -356.02 419 -355 419 C-354.34 418.34 -353.68 417.68 -353 417 C-352.01 416.67 -351.02 416.34 -350 416 C-349.34 415.34 -348.68 414.68 -348 414 C-346 412 -346 412 -343 411 C-340.7537095 409.98554623 -338.90750816 408.92993042 -336.9375 407.4375 C-335 406 -335 406 -332 405 C-331.34 404.34 -330.68 403.68 -330 403 C-329.01 402.67 -328.02 402.34 -327 402 C-326.34 401.34 -325.68 400.68 -325 400 C-324.01 399.67 -323.02 399.34 -322 399 C-321.34 398.01 -320.68 397.02 -320 396 C-319.01 396 -318.02 396 -317 396 C-316.443125 395.443125 -315.88625 394.88625 -315.3125 394.3125 C-312.26879463 391.26879463 -308.8517637 388.92983643 -305 387 C-304.01 387 -303.02 387 -302 387 C-301.34 386.34 -300.68 385.68 -300 385 C-298.66666667 384.33333333 -297.33333333 383.66666667 -296 383 C-295.319375 382.484375 -294.63875 381.96875 -293.9375 381.4375 C-292 380 -292 380 -289 379 C-288.34 378.34 -287.68 377.68 -287 377 C-286.01 376.67 -285.02 376.34 -284 376 C-283.34 375.34 -282.68 374.68 -282 374 C-281.01 373.67 -280.02 373.34 -279 373 C-278.34 372.34 -277.68 371.68 -277 371 C-274.57009427 369.48951806 -272.10093377 368.05843534 -269.625 366.625 C-266.87312403 364.92145773 -264.31859152 363.04650162 -261.74609375 361.0859375 C-259.8423977 359.90198336 -258.16021239 359.53672628 -256 359 C-255.071875 358.0409375 -255.071875 358.0409375 -254.125 357.0625 C-251.58108164 354.59340277 -249.35354404 354.02064384 -246 353 C-245.34 352.34 -244.68 351.68 -244 351 C-243.01 350.67 -242.02 350.34 -241 350 C-240.34 349.34 -239.68 348.68 -239 348 C-237.33779419 346.99260254 -235.66979326 345.99477045 -234 345 C-232.66302363 344.10961282 -231.33012969 343.21308322 -230 342.3125 C-226.0897917 339.69252878 -222.12535545 337.167073 -218.125 334.6875 C-217.03445313 334.01074219 -215.94390625 333.33398438 -214.8203125 332.63671875 C-212 331 -212 331 -209 330 C-208.21625 329.34 -207.4325 328.68 -206.625 328 C-203.93374277 325.9495183 -202.31027546 325.3783172 -199 325 C-199 324.34 -199 323.68 -199 323 C-197.35 322.67 -195.7 322.34 -194 322 C-194.33 320.68 -194.66 319.36 -195 318 C-194.12811035 317.90138672 -193.2562207 317.80277344 -192.35791016 317.70117188 C-188.71186308 316.93983356 -186.42709511 315.74127537 -183.2734375 313.78125 C-182.17322266 313.10473389 -181.07300781 312.42821777 -179.93945312 311.73120117 C-178.7512536 310.9875449 -177.56310388 310.24380906 -176.375 309.5 C-175.13279754 308.73244942 -173.88994708 307.96594669 -172.64648438 307.20043945 C-170.05832915 305.60595762 -167.4730327 304.00698445 -164.88964844 302.40478516 C-159.37148975 298.98713463 -153.82074855 295.62334986 -148.2694397 292.25991821 C-146.49693745 291.18564386 -144.72528193 290.10998597 -142.95385742 289.03393555 C-136.21099085 284.93898065 -129.45591327 280.86507806 -122.6875 276.8125 C-120.30025465 275.38005476 -117.91327059 273.9471751 -115.52636719 272.51416016 C-113.74960717 271.44927171 -111.9714881 270.38664916 -110.19238281 269.32568359 C-93.69808968 259.48125273 -77.46617082 249.70170997 -63.51171875 236.39453125 C-61.45871213 234.43731032 -59.37969385 232.60787289 -57.1875 230.8125 C-24.96962526 203.556472 -6.1622794 155.78004004 -2 115 C-1.03044729 101.05515223 -0.79965641 87.11831429 -0.68359375 73.14453125 C-0.66295698 71.01933959 -0.64195912 68.89415141 -0.62062073 66.76896667 C-0.56609258 61.24381373 -0.51638554 55.71862815 -0.46777344 50.19342041 C-0.41704419 44.52800684 -0.36162986 38.86263916 -0.30664062 33.19726562 C-0.19990962 22.13154985 -0.09828515 11.06579379 0 0 Z " fill="#8661B4" transform="translate(672,420)"/>
<path d="M0 0 C0.66 0.33 1.32 0.66 2 1 C1.37198486 1.49016602 0.74396973 1.98033203 0.09692383 2.48535156 C-20.04718471 18.55113801 -39.37631042 37.41280228 -52 60 C-52.49048828 60.84933105 -52.98097656 61.69866211 -53.48632812 62.57373047 C-73.88102357 98.1049062 -79.09673662 135.58411056 -79.20532227 175.90795898 C-79.21491971 178.18600637 -79.22493083 180.46405204 -79.23532104 182.74209595 C-79.26217417 188.88356275 -79.28328883 195.02503709 -79.30332303 201.16652942 C-79.32530457 207.60070309 -79.3526333 214.03485408 -79.37937927 220.4690094 C-79.42349982 231.2544764 -79.46436202 242.03995046 -79.50268555 252.82543945 C-79.54214124 263.92701121 -79.58359101 275.02857261 -79.62768555 286.13012695 C-79.63177196 287.15920964 -79.63177196 287.15920964 -79.63594092 288.20908188 C-79.64962205 291.65134295 -79.663342 295.09360387 -79.67708123 298.53586471 C-79.79073652 327.02388801 -79.8975429 355.51193434 -80 384 C-79.01 384.33 -78.02 384.66 -77 385 C-77.99 385.33 -78.98 385.66 -80 386 C-79.89174088 398.18874984 -79.77896626 410.37744914 -79.66066074 422.56610584 C-79.6058448 428.22772843 -79.55249827 433.8893564 -79.50268555 439.55102539 C-79.45442314 445.03000878 -79.40207158 450.50894011 -79.34705925 455.98785973 C-79.32691175 458.06266648 -79.30815901 460.13748732 -79.29092598 462.21232033 C-79.19726429 487.67893369 -79.19726429 487.67893369 -76.3125 512.9375 C-76.14024902 513.93837646 -75.96799805 514.93925293 -75.79052734 515.97045898 C-73.98639665 525.9057611 -71.29791364 535.46417219 -68 545 C-67.35804688 546.86398437 -67.35804688 546.86398437 -66.703125 548.765625 C-60.2622442 565.96656548 -51.37614859 582.57263275 -40 597 C-39.26265625 597.94617188 -38.5253125 598.89234375 -37.765625 599.8671875 C-29.9994744 609.58864552 -21.73305814 619.19974773 -12 627 C-11.04609375 627.76828125 -10.0921875 628.5365625 -9.109375 629.328125 C10.78771197 645.11259489 33.58360629 657.37773927 55.33789062 670.39941406 C63.82659857 675.48505347 72.29133031 680.61070234 80.73754883 685.76660156 C86.05065906 689.00821682 91.3698091 692.23225506 96.75390625 695.35546875 C97.59872559 695.85167725 98.44354492 696.34788574 99.31396484 696.85913086 C100.84690418 697.7574188 102.38720691 698.64330973 103.93603516 699.51391602 C108.78782095 702.37991754 108.78782095 702.37991754 109.95703125 705.796875 C109.97121094 706.52390625 109.98539062 707.2509375 110 708 C108.35 708.33 106.7 708.66 105 709 C105 709.66 105 710.32 105 711 C104.45730469 711.25394531 103.91460937 711.50789062 103.35546875 711.76953125 C102.64003906 712.11371094 101.92460937 712.45789063 101.1875 712.8125 C100.47980469 713.14894531 99.77210938 713.48539063 99.04296875 713.83203125 C96.96841571 714.89010223 96.96841571 714.89010223 95.55078125 716.51171875 C93.55648641 718.42563898 91.57594637 718.98403234 89 720 C85.69083714 721.85895751 82.48677101 723.89513852 79.26367188 725.8984375 C74.2034928 729 74.2034928 729 72 729 C71.67 729.99 71.34 730.98 71 732 C69.68 732 68.36 732 67 732 C66.67 732.99 66.34 733.98 66 735 C63.6015625 736.5703125 63.6015625 736.5703125 60.625 738.125 C59.64789063 738.64320313 58.67078125 739.16140625 57.6640625 739.6953125 C55 741 55 741 52 742 C51.1028125 742.9590625 51.1028125 742.9590625 50.1875 743.9375 C47.59524693 746.38162432 45.34787608 746.88404131 42 748 C41.401875 748.598125 40.80375 749.19625 40.1875 749.8125 C37.56025591 752.43974409 34.8057803 753.84856592 31.546875 755.58984375 C28.85061393 757.08271222 26.27614032 758.70285806 23.6875 760.375 C18.78019797 763.53610313 13.78253697 766.5054908 8.7265625 769.421875 C6.89052413 770.48456769 5.07267361 771.57924686 3.2734375 772.703125 C1 774 1 774 -1 774 C-1.66 774.66 -2.32 775.32 -3 776 C-3.99 776.33 -4.98 776.66 -6 777 C-6.66 777.66 -7.32 778.32 -8 779 C-8.99 779.33 -9.98 779.66 -11 780 C-11.515625 780.515625 -12.03125 781.03125 -12.5625 781.5625 C-13.036875 782.036875 -13.51125 782.51125 -14 783 C-14.66 783 -15.32 783 -16 783 C-16.87011719 783.87978516 -16.87011719 783.87978516 -17.7578125 784.77734375 C-20.27275678 787.27038085 -22.80039033 788.81396244 -25.875 790.5625 C-26.88304687 791.14128906 -27.89109375 791.72007812 -28.9296875 792.31640625 C-32.55683225 794.30533677 -36.20887834 796.21638427 -40 797.875 C-42.27346296 799.07425057 -42.27346296 799.07425057 -45 801.5 C-50.4 806 -50.4 806 -54 806 C-54.58523438 806.59039063 -55.17046875 807.18078125 -55.7734375 807.7890625 C-58.22003076 810.21848668 -60.62332513 811.68804288 -63.625 813.375 C-67.45506831 815.5496998 -71.25089937 817.75116126 -75 820.0625 C-82.03337608 824.30070562 -89.35441281 828.00250727 -97 831 C-97.61875 831.309375 -98.2375 831.61875 -98.875 831.9375 C-101.87255919 833.4362796 -104.87591299 834.78507727 -108 836 C-108.66 835.67 -109.32 835.34 -110 835 C-110 835.66 -110 836.32 -110 837 C-111.62212059 837.52973311 -113.24781584 838.04853107 -114.875 838.5625 C-115.77992188 838.85253906 -116.68484375 839.14257812 -117.6171875 839.44140625 C-120 840 -120 840 -122 839 C-122 839.66 -122 840.32 -122 841 C-126.75 842.125 -126.75 842.125 -129 841 C-129 841.66 -129 842.32 -129 843 C-135.75 844.125 -135.75 844.125 -138 843 C-138 843.66 -138 844.32 -138 845 C-139.65 844.67 -141.3 844.34 -143 844 C-143 844.66 -143 845.32 -143 846 C-143.969375 845.979375 -144.93875 845.95875 -145.9375 845.9375 C-148.87465895 845.64381501 -148.87465895 845.64381501 -150 847 C-158.55023997 848.33151679 -167.18005529 848.23918582 -175.8125 848.25 C-176.58813293 848.25200409 -177.36376587 848.25400818 -178.16290283 848.256073 C-190.34593561 848.26378278 -202.04231359 847.48154137 -214 845 C-215.20027832 844.76953979 -215.20027832 844.76953979 -216.42480469 844.53442383 C-220.80297127 843.62583389 -225.076315 842.34893115 -229.375 841.125 C-230.29539063 840.86847656 -231.21578125 840.61195313 -232.1640625 840.34765625 C-237.30241769 838.88689528 -242.14588772 837.2331591 -247 835 C-247 835.66 -247 836.32 -247 837 C-246.01 837.33 -245.02 837.66 -244 838 C-244.66 838.33 -245.32 838.66 -246 839 C-248.51171875 837.7434082 -248.51171875 837.7434082 -251.6875 835.80078125 C-252.25771378 835.45448166 -252.82792755 835.10818207 -253.41542053 834.75138855 C-255.28238279 833.61371657 -257.14142836 832.46382073 -259 831.3125 C-260.28040147 830.52585265 -261.56091951 829.73939501 -262.84155273 828.953125 C-279.50252194 818.69101139 -295.24341052 808.1400099 -309.75 794.9375 C-310.26925049 794.46699219 -310.78850098 793.99648438 -311.32348633 793.51171875 C-343.32506791 763.88571157 -364.72401947 718.30958738 -368 675 C-368.14720068 670.09971743 -368.14816163 665.20038078 -368.14717102 660.29832458 C-368.15047538 658.81035821 -368.15420214 657.32239273 -368.1583125 655.83442837 C-368.16827606 651.76232457 -368.17204015 647.69023551 -368.17470181 643.61812127 C-368.17862184 639.21900001 -368.18819907 634.81989024 -368.19691467 630.42077637 C-368.21663353 619.80362977 -368.22674047 609.18648228 -368.23564246 598.56932196 C-368.24003376 593.55906764 -368.24539846 588.54881436 -368.25063133 583.53856087 C-368.26764069 566.86448988 -368.28213162 550.19041953 -368.28938007 533.51634121 C-368.29128971 529.19391822 -368.29321008 524.87149523 -368.29516602 520.54907227 C-368.29564976 519.47486407 -368.2961335 518.40065587 -368.2966319 517.29389591 C-368.30492013 499.91892566 -368.33023793 482.54402453 -368.36274669 465.16908442 C-368.39591169 447.29640611 -368.41383742 429.4237628 -368.41702431 411.55105358 C-368.41918093 401.53017676 -368.42780419 391.50940066 -368.45348549 381.488554 C-368.47532206 372.94859588 -368.48317991 364.40876295 -368.47351871 355.86878007 C-368.4690109 351.52144932 -368.47065146 347.17437615 -368.49028015 342.82708168 C-368.58856346 319.78921009 -367.63120412 297.3398018 -360.5625 275.1875 C-360.2310498 274.13328857 -359.89959961 273.07907715 -359.55810547 271.99291992 C-353.46968655 253.54139398 -344.7142729 235.54626146 -333 220 C-332.58073242 219.43104004 -332.16146484 218.86208008 -331.72949219 218.27587891 C-321.69166657 204.71237073 -310.42247865 192.26993683 -297 182 C-296.14664063 181.28457031 -295.29328125 180.56914062 -294.4140625 179.83203125 C-283.11806483 170.59407151 -270.281673 163.49860186 -257.77124023 156.05523682 C-254.02199615 153.82158137 -250.2822823 151.57201294 -246.54077148 149.32543945 C-244.50440062 148.10296294 -242.46744839 146.88145437 -240.42993164 145.66088867 C-232.66615519 141.00898605 -224.92235007 136.32476755 -217.1875 131.625 C-216.60567963 131.27149475 -216.02385925 130.9179895 -215.42440796 130.55377197 C-211.28236132 128.0367972 -207.14109321 125.51854301 -203 123 C-198.27136534 120.12412419 -193.54239057 117.24880989 -188.8125 114.375 C-188.23043793 114.02133362 -187.64837585 113.66766724 -187.04867554 113.30328369 C-177.8609154 107.72223949 -168.64886177 102.18247957 -159.42626953 96.65917969 C-151.6641797 92.0070703 -143.9212062 87.32407252 -136.1875 82.625 C-135.60567963 82.27149475 -135.02385925 81.9179895 -134.42440796 81.55377197 C-130.28236132 79.0367972 -126.14109321 76.51854301 -122 74 C-117.27136534 71.12412419 -112.54239057 68.24880989 -107.8125 65.375 C-107.23043793 65.02133362 -106.64837585 64.66766724 -106.04867554 64.30328369 C-96.8609154 58.72223949 -87.64886177 53.18247957 -78.42626953 47.65917969 C-67.72212181 41.24378549 -57.05746227 34.76388988 -46.39497375 28.27961731 C-42.08528917 25.65893054 -37.77356601 23.04162021 -33.4609375 20.42578125 C-32.20938752 19.66651009 -30.95784126 18.90723281 -29.70629883 18.14794922 C-27.36258062 16.72607826 -25.01863862 15.30457864 -22.67456055 13.88330078 C-21.59730713 13.22958496 -20.52005371 12.57586914 -19.41015625 11.90234375 C-18.36359863 11.26925293 -17.31704102 10.63616211 -16.23876953 9.98388672 C-13.93364211 8.57189626 -11.64573068 7.14462467 -9.36669922 5.69189453 C-8.77126816 5.31561417 -8.1758371 4.9393338 -7.56236267 4.551651 C-5.89787786 3.49792864 -4.23869715 2.43584148 -2.57983398 1.37329102 C-1.72848877 0.92010498 -0.87714355 0.46691895 0 0 Z " fill="#5D78D5" transform="translate(368,34)"/>
<path d="M0 0 C5.19644079 1.59890486 10.06612142 3.74138003 15 6 C15 6.99 15 7.98 15 9 C15.99 9.33 16.98 9.66 18 10 C17.01 10.495 17.01 10.495 16 11 C14.30419922 10.21142578 14.30419922 10.21142578 12.3046875 8.9453125 C11.58925781 8.49542969 10.87382813 8.04554688 10.13671875 7.58203125 C9.39035156 7.10121094 8.64398438 6.62039063 7.875 6.125 C7.12089844 5.65191406 6.36679688 5.17882812 5.58984375 4.69140625 C1.52368719 2.11053653 1.52368719 2.11053653 0 1 C0 0.67 0 0.34 0 0 Z " fill="#9389EA" transform="translate(106,862)"/>
<path d="M0 0 C0.66 0.33 1.32 0.66 2 1 C-2.455 4.465 -2.455 4.465 -7 8 C-7.66 7.67 -8.32 7.34 -9 7 C-6.04399553 4.50381844 -3.22113035 2.14742023 0 0 Z " fill="#8778D9" transform="translate(368,34)"/>
<path d="M0 0 C2.475 0.495 2.475 0.495 5 1 C5 1.99 5 2.98 5 4 C5.99 4.33 6.98 4.66 8 5 C7.01 5.495 7.01 5.495 6 6 C3.4375 4.75 3.4375 4.75 1 3 C0.67 2.01 0.34 1.02 0 0 Z " fill="#AB91F4" transform="translate(116,867)"/>
</svg>
