<?xml version="1.0" standalone="no"?>
<!DOCTYPE svg PUBLIC "-//W3C//DTD SVG 20010904//EN"
 "http://www.w3.org/TR/2001/REC-SVG-20010904/DTD/svg10.dtd">
<svg version="1.0" xmlns="http://www.w3.org/2000/svg"
 width="960.000000pt" height="1056.000000pt" viewBox="0 0 960.000000 1056.000000"
 preserveAspectRatio="xMidYMid meet">

<g transform="translate(0.000000,1056.000000) scale(0.100000,-0.100000)"
fill="#000000" stroke="none">
<path d="M4695 10553 c-206 -12 -434 -63 -617 -138 -561 -229 -971 -689 -1133
-1270 -62 -223 -58 -142 -62 -1522 l-4 -1263 208 127 c890 541 896 544 1118
618 169 56 320 85 477 92 148 7 148 7 148 123 0 46 6 83 20 115 13 30 21 72
22 118 2 68 2 69 6 17 l3 -55 15 34 c8 18 14 62 14 97 0 56 8 81 66 216 310
717 738 1476 1158 2058 41 57 74 105 73 106 -1 0 -108 66 -237 144 -354 215
-533 294 -784 345 -115 23 -343 47 -410 43 -17 -1 -53 -3 -81 -5z"/>
<path d="M0 5011 c0 -851 4 -1406 10 -1486 53 -645 390 -1185 950 -1522 317
-191 728 -286 1102 -255 333 28 595 115 908 304 69 41 501 302 960 580 459
277 843 509 854 515 22 12 74 -21 -570 366 -263 159 -515 315 -559 347 -359
267 -608 636 -722 1074 l-28 108 -120 34 c-66 19 -246 77 -400 129 -788 263
-1548 626 -2232 1066 l-153 98 0 -1358z"/>
<path d="M6720 5823 c0 -303 -5 -577 -10 -628 -62 -543 -352 -1041 -787 -1351
-47 -33 -167 -111 -268 -172 l-182 -112 48 -97 c165 -339 224 -734 164 -1103
-100 -613 -473 -1189 -1092 -1685 -132 -106 -427 -304 -576 -388 l-111 -62 95
-44 c520 -242 1133 -233 1649 23 58 29 643 378 1300 776 657 398 1314 795
1460 883 418 252 486 302 660 484 299 313 475 697 521 1141 31 304 -80 737
-271 1047 -119 195 -306 402 -480 531 -71 54 -1973 1216 -2097 1283 l-23 12 0
-538z"/>
</g>
</svg>
